<svg xmlns="http://www.w3.org/2000/svg" width="500" height="500" viewBox="0 0 500 500"><path fill="#E64B29" d="M500 420c0 44-36 80-80 80h-340c-44 0-80-36-80-80v-340c0-44 36-80 80-80h340c44 0 80 36 80 80v340z"/><g fill="#fff"><path d="M187.378 244.24h-43.334v-22.594h30.936v-13.093h-30.936v-18.654h43.334v-13.208h-58.628v80.757h58.628zM265.121 204.382c0-15.758-5.445-27.692-22.478-27.692h-42.059v80.758h15.294v-26.649h27.112c15.527 0 22.131-12.513 22.131-26.417zm-26.765 13.672h-22.478v-28.387h22.825c6.256 0 9.617 4.75 9.617 14.599.001 9.154-3.591 13.788-9.964 13.788zM278.559 176.691h15.294v80.758h-15.294zM350.742 188.625c5.446 0 12.977 1.043 17.148 2.549l3.36-13.44c-6.256-1.738-15.757-3.013-23.173-3.013-25.606 0-37.888 8.574-37.888 41.596 0 32.905 12.282 42.754 37.888 42.754 7.415 0 16.916-1.159 23.173-2.897l-3.36-13.672c-4.171 1.506-11.702 2.549-17.148 2.549-17.611 0-24.216-3.823-24.216-28.619s6.604-27.807 24.216-27.807zM150.809 293.279c-9.561-.903-11.519-2.711-11.519-6.701 0-5.119 3.463-6.851 11.82-6.851 5.27 0 10.917.828 13.853 1.882l2.184-8.583c-4.141-1.355-10.314-2.334-16.036-2.334-14.681 0-22.361 4.743-22.361 17.09 0 9.712 5.421 13.326 17.015 14.455 10.089.903 11.971 3.388 11.971 7.303 0 5.421-3.765 6.927-12.121 6.927-5.12 0-10.691-.828-14.004-1.882l-2.184 8.583c4.216 1.431 10.54 2.334 16.338 2.334 15.133 0 22.661-4.141 22.661-16.488.001-9.937-5.42-14.455-17.617-15.735zM178.515 271.973h9.938v52.476h-9.938zM201.252 296.065c2.635-2.183 10.164-10.54 19.801-24.092h-12.046c-9.185 13.552-17.24 22.436-20.478 24.77 3.012 1.205 11.444 10.315 21.984 27.706h12.197c-10.466-17.392-18.898-26.652-21.458-28.384zM228.354 271.973h9.938v52.476h-9.938zM261.481 271.973h-9.938v52.476h34.708v-8.659h-24.77zM302.965 271.973h-9.939v52.476h34.708v-8.659h-24.769zM353.633 293.279c-9.562-.903-11.519-2.711-11.519-6.701 0-5.119 3.463-6.851 11.82-6.851 5.271 0 10.917.828 13.853 1.882l2.184-8.583c-4.141-1.355-10.314-2.334-16.037-2.334-14.681 0-22.36 4.743-22.36 17.09 0 9.712 5.421 13.326 17.015 14.455 10.089.903 11.971 3.388 11.971 7.303 0 5.421-3.765 6.927-12.122 6.927-5.119 0-10.691-.828-14.004-1.882l-2.183 8.583c4.216 1.431 10.54 2.334 16.338 2.334 15.133 0 22.661-4.141 22.661-16.488 0-9.937-5.421-14.455-17.617-15.735zM96.268 212.812c0-26.25 6.65-33.25 18.025-37.276l-10.325-16.275c-14.525 4.9-28.7 16.8-28.7 46.551 0 28-8.925 35.176-19.25 35.176v17.85c10.325 0 19.25 7.175 19.25 35.176 0 29.751 14.175 41.826 28.7 46.726l10.325-16.1c-11.725-4.2-18.025-11.025-18.025-37.276 0-27.651-9.625-35.701-15.4-37.451 5.775-1.75 15.4-9.451 15.4-37.101zM424.733 205.812c0-29.75-14.175-41.651-28.701-46.551l-10.325 16.1c11.726 4.025 18.025 11.025 18.025 37.101 0 27.65 9.625 35.701 15.4 37.451-5.775 1.75-15.4 9.625-15.4 37.101 0 26.25-6.65 33.25-18.025 37.276l10.325 16.275c14.525-4.9 28.701-16.8 28.701-46.551 0-28 8.925-35.176 19.25-35.176v-17.85c-10.324-.001-19.25-7.176-19.25-35.176z"/></g></svg>